<svg width="64" height="64" viewBox="0 0 32 32" xmlns="http://www.w3.org/2000/svg" xmlns:xlink="http://www.w3.org/1999/xlink" fill-rule="evenodd" overflow="hidden"><path d="M28.312 28.26C25.003 30.7 20.208 32 16.08 32 10.28 32 5.078 29.86 1.135 26.297 0.835 26.017 1.103 25.635 1.475 25.853 5.73 28.33 11 29.82 16.426 29.82 20.3445 29.8019 24.2208 29.0094 27.832 27.488 28.392 27.25 28.862 27.855 28.312 28.261M29.688 26.686C29.268 26.146 26.892 26.431 25.828 26.556 25.503 26.596 25.454 26.313 25.746 26.11 27.646 24.78 30.74 25.163 31.102 25.61 31.464 26.057 31.008 29.17 29.232 30.654 28.959 30.882 28.699 30.761 28.832 30.458 29.232 29.462 30.126 27.228 29.702 26.686" fill="#FFFFFF"/><path d="M18.43 13.864C18.43 15.556 18.473 16.967 17.618 18.469 16.918 19.689 15.818 20.442 14.613 20.442 12.946 20.442 11.969 19.172 11.969 17.297 11.969 13.597 15.285 12.924 18.431 12.924L18.431 13.864M22.811 24.448C22.524 24.705 22.109 24.723 21.785 24.552 20.345 23.355 20.081 22.799 19.293 21.657 16.911 24.087 15.219 24.814 12.135 24.814 8.477 24.814 5.637 22.56 5.637 18.047 5.637 14.523 7.542 12.123 10.267 10.95 12.624 9.912 15.917 9.73 18.432 9.45L18.432 8.9C18.432 7.868 18.512 6.646 17.902 5.755 17.377 4.955 16.362 4.625 15.465 4.625 13.81 4.625 12.338 5.475 11.978 7.233 11.905 7.633 11.618 8.009 11.221 8.027L7 7.555C6.646 7.475 6.25 7.189 6.353 6.655 7.328 1.54 11.945 0 16.074 0 18.187 0 20.948 0.562 22.614 2.162 24.727 4.135 24.526 6.767 24.526 9.632L24.526 16.4C24.526 18.434 25.369 19.325 26.163 20.425 26.438 20.825 26.499 21.285 26.145 21.579 25.0242 22.5267 23.9148 23.4878 22.817 24.462L22.811 24.45" fill="#FFFFFF"/><path d="M-29.65 355.868C-64.65 381.665-115.38 395.428-159.056 395.428-220.299 395.428-275.433 372.778-317.144 335.103-320.421 332.14-317.484 328.103-313.552 330.41-268.538 356.61-212.879 372.357-155.386 372.357-116.611 372.357-73.956 364.335-34.736 347.687-28.811 345.17-23.856 351.567-29.65 355.867M-15.1 339.22C-19.557 333.505-44.673 336.52-55.946 337.857-59.38 338.277-59.906 335.287-56.811 333.137-36.808 319.059-3.984 323.122-0.156 327.841 3.672 332.586-1.152 365.488-19.95 381.191-22.834 383.603-25.587 382.318-24.302 379.121-20.082 368.581-10.617 344.961-15.1 339.219" fill="#FFFFFF"/><path d="M-55.16 233.75-55.16 220.065C-55.16 217.995-53.587 216.605-51.7 216.605L9.57 216.605C11.536 216.605 13.11 218.021 13.11 220.065L13.11 231.785C13.084 233.751 11.432 236.321 8.496 240.385L-23.254 285.715C-11.456 285.427 0.996 287.183 11.693 293.213 14.105 294.576 14.76 296.569 14.943 298.535L14.943 313.138C14.943 315.13 12.741 317.464 10.443 316.258-8.407 306.374-33.444 305.298-54.287 316.363-56.411 317.517-58.639 315.209-58.639 313.217L-58.639 299.347C-58.639 297.119-58.613 293.317-56.384 289.935L-19.602 237.187-51.602 237.187C-53.568 237.187-55.142 235.787-55.142 233.753M-278.637 319.138-297.277 319.138C-299.06 319.008-300.475 317.67-300.607 315.966L-300.607 220.3C-300.607 218.386-299.007 216.866-297.015 216.866L-279.633 216.866C-277.833 216.946-276.383 218.334-276.251 220.064L-276.251 232.569-275.911 232.569C-271.375 220.483-262.855 214.846-251.371 214.846-239.705 214.846-232.416 220.483-227.173 232.569-222.673 220.483-212.413 214.846-201.428 214.846-193.615 214.846-185.068 218.071-179.852 225.306-173.952 233.356-175.159 245.046-175.159 255.298L-175.185 315.675C-175.185 317.589-176.785 319.135-178.777 319.135L-197.391 319.135C-199.251 319.005-200.747 317.51-200.747 315.675L-200.747 264.972C-200.747 260.935-200.38 250.867-201.271 247.04-202.671 240.617-206.829 238.808-212.231 238.808-216.731 238.808-221.459 241.823-223.373 246.648-225.287 251.473-225.103 259.548-225.103 264.974L-225.103 315.677C-225.103 317.591-226.703 319.137-228.695 319.137L-247.309 319.137C-249.197 319.007-250.665 317.512-250.665 315.677L-250.691 264.974C-250.691 254.304-248.934 238.6-262.174 238.6-275.571 238.6-275.046 253.9-275.046 264.974L-275.046 315.677C-275.046 317.591-276.646 319.137-278.638 319.137M65.858 214.837C93.518 214.837 108.488 238.589 108.488 268.791 108.488 297.971 91.945 321.121 65.858 321.121 38.698 321.121 23.911 297.369 23.911 267.771 23.911 237.989 38.881 214.839 65.858 214.839M66.015 234.371C52.277 234.371 51.412 253.091 51.412 264.756 51.412 276.449 51.228 301.406 65.857 301.406 80.302 301.406 80.984 281.271 80.984 269.002 80.984 260.927 80.644 251.279 78.204 243.624 76.107 236.964 71.938 234.369 66.004 234.369M144.342 319.127 125.8 319.127C123.94 318.997 122.444 317.502 122.444 315.667L122.418 219.967C122.575 218.21 124.122 216.847 126.01 216.847L143.287 216.847C144.912 216.927 146.249 218.027 146.617 219.521L146.617 234.151 146.957 234.151C152.174 221.069 159.489 214.829 172.361 214.829 180.724 214.829 188.878 217.844 194.121 226.102 198.997 233.757 198.997 246.63 198.997 255.884L198.997 316.104C198.797 317.782 197.24 319.119 195.405 319.119L176.712 319.119C175.008 318.989 173.592 317.719 173.409 316.104L173.409 264.142C173.409 253.682 174.615 238.372 161.742 238.372 157.207 238.372 153.038 241.412 150.967 246.027 148.345 251.873 148.005 257.694 148.005 264.143L148.005 315.659C147.979 317.573 146.353 319.119 144.361 319.119M210.654 311.525C210.654 306.701 214.77 302.821 219.83 302.821 224.89 302.821 229.006 306.701 229.006 311.525 229.006 316.323 224.89 320.255 219.83 320.255 214.77 320.255 210.654 316.322 210.654 311.525M408.154 319.155C406.214 319.075 404.694 317.582 404.694 315.695L404.694 220.04C404.799 218.336 406.241 217 408.024 216.894L414.867 216.894C416.755 216.894 418.275 218.257 418.432 220.04L418.432 233.987C423.308 222.923 432.379 214.272 443.836 214.272L445.236 214.272C457.401 214.272 466.288 223.238 469.591 236.268 474.756 223.396 484.456 214.272 497.251 214.272L498.667 214.272C507.712 214.272 516.417 220.092 520.925 228.952 525.277 237.42 525.12 248.692 525.12 258.158L525.094 315.704C525.12 317.539 523.626 319.034 521.764 319.164L513.584 319.164C511.801 319.084 510.359 317.827 510.124 316.164L510.124 258.146C510.124 251.303 510.464 244.041 507.686 237.802 504.856 231.432 499.428 227.446 493.608 227.158 487.106 227.473 481.128 232.218 477.248 238.615 472.214 246.873 472.398 254.319 472.398 263.967L472.398 316.217C472.162 317.79 470.773 319.022 469.068 319.153L460.941 319.153C459.001 319.073 457.454 317.58 457.454 315.693L457.402 254.319C457.402 248.682 457.062 242.049 454.466 236.989 451.451 231.221 446.05 227.446 440.388 227.159 434.515 227.499 428.59 231.983 425.088 237.199 420.552 243.859 419.688 252.099 419.688 260.559L419.688 315.693C419.688 317.528 418.194 319.023 416.332 319.153L408.179 319.153M352 321.157C325.547 321.157 313.697 294.18 313.697 267.203 313.697 238.836 327.617 214.271 354.254 214.271L355.67 214.271C381.572 214.271 394.47 240.435 394.47 267.413 394.47 295.989 380.182 321.158 353.388 321.158L351.988 321.158M353.928 308.076C362.632 307.788 369.501 302.376 373.564 293.396 377.208 285.321 377.916 276.066 377.916 267.196 377.916 257.548 376.866 247.481 372.332 239.223 368.268 232.023 361.295 227.425 353.902 227.163 345.67 227.451 338.302 233.036 334.606 241.635 331.276 249.081 330.254 258.965 330.254 267.195 330.254 276.45 331.46 287.145 335.288 295.195 339.011 302.825 346.168 307.779 353.928 308.067M269.328 307.645C281.204 307.278 287.444 297.761 290.013 285.439 290.537 283.892 291.717 282.712 293.447 282.712L301.287 282.686C303.147 282.766 304.852 284.18 304.695 285.911 301.077 306.911 288.415 321.146 270.377 321.146L268.961 321.146C242.691 321.146 231.366 294.772 231.366 268.004 231.366 241.446 242.849 214.259 269.118 214.259L270.534 214.259C288.781 214.259 301.784 228.311 304.616 249.311 304.616 250.884 303.148 252.247 301.418 252.431L293.212 252.326C291.482 252.09 290.354 250.622 290.092 248.97 288.126 237.25 281.388 227.918 270.167 227.55 252.313 228.127 247.227 250.096 247.227 267.006 247.227 283.286 251.474 307.066 269.327 307.642M-104 273.442C-104 280.704-103.816 286.76-107.487 293.209-110.45 298.452-115.169 301.677-120.387 301.677-127.544 301.677-131.739 296.224-131.739 288.175-131.739 272.288-117.503 269.405-104.002 269.405L-104.002 273.442M-85.205 318.876C-86.437 319.976-88.22 320.056-89.609 319.322-95.796 314.182-96.924 311.798-100.305 306.895-110.53 317.329-117.792 320.449-131.031 320.449-146.735 320.449-158.926 310.775-158.926 291.401-158.926 276.274-150.746 265.971-139.054 260.937-128.934 256.48-114.804 255.694-104.002 254.461L-104.002 252.049C-104.002 247.619-103.662 242.375-106.282 238.547-108.537 235.113-112.889 233.697-116.742 233.697-123.847 233.697-130.165 237.341-131.712 244.892-132.027 246.57-133.259 248.222-134.962 248.3L-153.025 246.36C-154.545 246.02-156.25 244.787-155.805 242.454-151.663 220.537-131.843 213.93-114.12 213.93-105.05 213.93-93.2 216.342-86.042 223.21-76.972 231.678-77.836 242.977-77.836 255.273L-77.836 284.321C-77.836 293.051-74.218 296.879-70.81 301.598-69.63 303.276-69.368 305.295-70.89 306.553-74.69 309.725-81.455 315.623-85.178 318.927L-85.204 318.874M-348.368 273.442C-348.368 280.704-348.185 286.76-351.855 293.209-354.818 298.452-359.51 301.677-364.755 301.677-371.912 301.677-376.081 296.224-376.081 288.175-376.081 272.288-361.845 269.405-348.381 269.405L-348.381 273.442M-329.584 318.876C-330.816 319.976-332.599 320.056-333.988 319.322-340.175 314.182-341.276 311.798-344.684 306.895-354.909 317.329-362.144 320.449-375.41 320.449-391.088 320.449-403.305 310.775-403.305 291.401-403.305 276.274-395.099 265.971-383.433 260.937-373.313 256.48-359.183 255.694-348.381 254.461L-348.381 252.049C-348.381 247.619-348.041 242.375-350.636 238.547-352.916 235.113-357.269 233.697-361.096 233.697-368.201 233.697-374.546 237.341-376.092 244.892-376.407 246.57-377.639 248.222-379.317 248.3L-397.417 246.36C-398.937 246.02-400.615 244.787-400.197 242.454-396.029 220.537-376.235 213.93-358.512 213.93-349.442 213.93-337.592 216.342-330.434 223.21-321.364 231.678-322.228 242.977-322.228 255.273L-322.228 284.321C-322.228 293.051-318.61 296.879-315.202 301.598-313.996 303.276-313.734 305.295-315.254 306.553-319.054 309.725-325.819 315.623-329.542 318.927L-329.594 318.874" fill="#FFFFFF"/></svg>