<svg viewBox="0 0 512.003 512.003" xmlns="http://www.w3.org/2000/svg" xmlns:xlink="http://www.w3.org/1999/xlink" id="Capa_1" overflow="hidden"><g><g><path d="M351.98 0C324.684 1.888 292.78 19.36 274.188 42.112 257.228 62.752 243.276 93.408 248.716 123.2 278.54 124.128 309.356 106.24 327.212 83.104 343.916 61.568 356.556 31.104 351.98 0Z" fill="#FFFFFF"/></g></g><g><g><path d="M459.852 171.776C433.644 138.912 396.812 119.84 362.028 119.84 316.108 119.84 296.684 141.824 264.78 141.824 231.884 141.824 206.892 119.904 167.18 119.904 128.172 119.904 86.636 143.744 60.3 184.512 23.276 241.92 29.612 349.856 89.612 441.792 111.084 474.688 139.756 511.68 177.26 512 210.636 512.32 220.044 490.592 265.26 490.368 310.476 490.112 319.052 512.288 352.364 511.936 389.9 511.648 420.14 470.656 441.612 437.76 457.004 414.176 462.732 402.304 474.668 375.68 387.852 342.624 373.932 219.168 459.852 171.776Z" fill="#FFFFFF"/></g></g><g></g><g></g><g></g><g></g><g></g><g></g><g></g><g></g><g></g><g></g><g></g><g></g><g></g><g></g><g></g></svg>