<svg viewBox="0 0 512 512" xmlns="http://www.w3.org/2000/svg" xmlns:xlink="http://www.w3.org/1999/xlink" id="Capa_1" overflow="hidden"><g><g><path d="M452 0 60 0C26.916 0 0 26.916 0 60L0 452C0 485.084 26.916 512 60 512L452 512C485.084 512 512 485.084 512 452L512 60C512 26.916 485.084 0 452 0ZM472 452C472 463.028 463.028 472 452 472L338 472 338 309 399.79 309 410 247 338 247 338 204C338 187.025 351.025 174 368 174L409 174 409 112 368 112C317.077 112 276.022 153.25 276.022 204.174L276.022 247 216 247 216 309 276.022 309 276.022 472 60 472C48.972 472 40 463.028 40 452L40 60C40 48.972 48.972 40 60 40L452 40C463.028 40 472 48.972 472 60L472 452Z" stroke="none" stroke-width="1" stroke-linecap="butt" fill="#FFFFFF" fill-opacity="1"/></g></g><g></g><g></g><g></g><g></g><g></g><g></g><g></g><g></g><g></g><g></g><g></g><g></g><g></g><g></g><g></g></svg>