<svg width="512" height="512" viewBox="0 0 24 24" xmlns="http://www.w3.org/2000/svg" xmlns:xlink="http://www.w3.org/1999/xlink" id="regular" overflow="hidden"><path d="M1 21.375C1 22.1 1.303 22.763 1.693 23.131 2.047 23.617 2.879 24 3.612 24 4.045 24 4.482 23.892 4.883 23.67L16.81 17.004C16.829 16.993 16.838 16.975 16.855 16.963 17.541 16.66 18.829 15.853 21.656 14.295L21.657 14.295C23.445 13.292 23.447 10.71 21.656 9.705 19.006 8.352 17.718 7.419 16.952 7.062 16.151 6.494 14.122 5.475 9.707 3 4.102-0.14 3.234-0.68 1.886 0.657 0.466 1.244 1.162 5.17 1 21.375ZM11.277 11.977C11.176 12.076 2.594 21.252 2.5 21.352 2.647 6.64 2.365 4.522 2.509 2.657 2.602 2.757 10.939 11.653 11.277 11.977ZM3.486 22.493C15.029 10.372 11.82 13.747 12.377 13.128 12.472 13.229 15.428 16.365 15.239 16.165 3.819 22.461 4.151 22.571 3.486 22.493ZM20.923 12.986 16.589 15.41 13.375 12 16.589 8.59 20.923 11.014C21.691 11.443 21.69 12.557 20.923 12.986ZM15.236 7.838C13.987 9.15 15.092 8.019 12.33 10.89L3.484 1.504C4.485 1.593 7.627 3.621 15.236 7.838Z" fill="#FFFFFF"/></svg>