<svg viewBox="0 0 20.976 20.976" xmlns="http://www.w3.org/2000/svg" xmlns:xlink="http://www.w3.org/1999/xlink" id="Capa_1" overflow="hidden"><g><g><path d="M1.349 11.016C1.349 11.015 1.348 11.014 1.348 11.013 1.335 10.961 1.303 10.924 1.265 10.924 1.227 10.924 1.195 10.961 1.182 11.013 1.182 11.014 1.181 11.015 1.181 11.016 1.115 11.318 1.071 11.638 1.038 12.05 1.011 12.404 0.997 12.747 0.998 13.071 0.998 13.403 1.011 13.747 1.038 14.094 1.07 14.508 1.114 14.826 1.18 15.127 1.18 15.129 1.181 15.131 1.181 15.131 1.187 15.154 1.197 15.174 1.209 15.188 1.212 15.192 1.214 15.194 1.217 15.198 1.231 15.212 1.246 15.219 1.263 15.219 1.28 15.219 1.296 15.211 1.31 15.198 1.313 15.194 1.315 15.192 1.318 15.188 1.33 15.174 1.34 15.155 1.346 15.131 1.346 15.131 1.347 15.129 1.347 15.127 1.412 14.826 1.456 14.508 1.489 14.094 1.516 13.746 1.53 13.403 1.529 13.073 1.53 12.747 1.517 12.403 1.49 12.05 1.459 11.638 1.415 11.318 1.349 11.016Z" fill="#FFFFFF"/><path d="M0.206 12.095 0.205 12.093C0.198 12.064 0.179 12.04 0.156 12.04 0.134 12.04 0.115 12.063 0.108 12.093L0.107 12.095C0.068 12.273 0.042 12.458 0.023 12.7 0.007 12.909 0 13.11 0 13.3 0 13.495 0.007 13.696 0.023 13.902 0.042 14.144 0.068 14.33 0.106 14.507L0.107 14.509C0.11 14.523 0.116 14.534 0.124 14.542 0.125 14.544 0.127 14.546 0.128 14.548 0.136 14.556 0.145 14.562 0.155 14.562 0.165 14.562 0.175 14.556 0.182 14.548 0.184 14.546 0.185 14.544 0.187 14.542 0.194 14.534 0.2 14.522 0.203 14.509L0.204 14.507C0.243 14.329 0.268 14.144 0.287 13.902 0.303 13.697 0.311 13.496 0.31 13.302 0.311 13.111 0.303 12.909 0.287 12.7 0.271 12.458 0.245 12.273 0.206 12.095Z" fill="#FFFFFF"/><path d="M2.528 10.193C2.528 10.192 2.526 10.191 2.526 10.189 2.508 10.118 2.463 10.065 2.409 10.065 2.355 10.065 2.31 10.118 2.293 10.189 2.293 10.191 2.292 10.192 2.291 10.193 2.198 10.617 2.136 11.063 2.091 11.642 2.053 12.138 2.034 12.619 2.036 13.072 2.035 13.537 2.054 14.019 2.092 14.506 2.137 15.084 2.198 15.529 2.291 15.953 2.291 15.953 2.293 15.955 2.293 15.957 2.301 15.99 2.315 16.016 2.333 16.037 2.337 16.043 2.34 16.045 2.345 16.049 2.364 16.069 2.386 16.08 2.41 16.08 2.434 16.08 2.456 16.068 2.475 16.049 2.479 16.045 2.483 16.043 2.487 16.037 2.505 16.016 2.518 15.99 2.527 15.957 2.527 15.955 2.528 15.953 2.529 15.953 2.621 15.529 2.683 15.084 2.728 14.506 2.766 14.02 2.785 13.537 2.784 13.074 2.785 12.619 2.767 12.138 2.729 11.642 2.683 11.063 2.621 10.617 2.528 10.193Z" fill="#FFFFFF"/><path d="M3.805 9.826C3.805 9.825 3.803 9.823 3.803 9.821 3.783 9.742 3.734 9.683 3.673 9.683 3.613 9.683 3.564 9.742 3.544 9.821 3.544 9.823 3.542 9.825 3.542 9.826 3.438 10.296 3.37 10.793 3.32 11.434 3.278 11.985 3.257 12.52 3.258 13.024 3.257 13.54 3.278 14.075 3.321 14.616 3.371 15.257 3.439 15.755 3.542 16.223 3.542 16.225 3.544 16.227 3.544 16.229 3.553 16.265 3.568 16.294 3.588 16.317 3.592 16.323 3.596 16.327 3.601 16.331 3.622 16.352 3.646 16.366 3.673 16.366 3.7 16.366 3.725 16.352 3.746 16.331 3.751 16.327 3.755 16.323 3.759 16.317 3.779 16.294 3.794 16.264 3.803 16.229 3.803 16.227 3.804 16.225 3.805 16.223 3.908 15.754 3.975 15.256 4.026 14.616 4.068 14.075 4.089 13.54 4.088 13.026 4.089 12.52 4.069 11.985 4.026 11.434 3.977 10.793 3.908 10.295 3.805 9.826Z" fill="#FFFFFF"/><path d="M5.177 8.144C5.177 8.142 5.174 8.14 5.174 8.138 5.15 8.038 5.087 7.965 5.011 7.965 4.936 7.965 4.873 8.039 4.849 8.138 4.849 8.14 4.847 8.142 4.846 8.144 4.716 8.735 4.63 9.359 4.567 10.166 4.514 10.859 4.488 11.531 4.49 12.165 4.489 12.813 4.515 13.485 4.568 14.167 4.631 14.972 4.717 15.597 4.846 16.187 4.846 16.189 4.849 16.191 4.849 16.195 4.86 16.24 4.879 16.277 4.904 16.306 4.909 16.314 4.914 16.316 4.92 16.324 4.946 16.349 4.977 16.367 5.011 16.367 5.045 16.367 5.076 16.349 5.102 16.324 5.108 16.316 5.113 16.314 5.119 16.306 5.143 16.277 5.162 16.24 5.174 16.195 5.174 16.191 5.177 16.189 5.177 16.187 5.306 15.597 5.391 14.972 5.455 14.167 5.507 13.485 5.534 12.813 5.534 12.167 5.535 11.531 5.51 10.859 5.456 10.167 5.393 9.359 5.307 8.735 5.177 8.144Z" fill="#FFFFFF"/><path d="M17.013 7.84C16.223 5.943 14.354 4.609 12.171 4.609 10.365 4.609 8.775 5.523 7.833 6.912L7.833 16.366C7.909 16.366 7.985 16.366 8.062 16.366 12.324 16.366 18.055 16.366 18.327 16.366 19.046 16.366 19.408 15.934 19.408 15.934 20.369 15.08 20.976 13.836 20.976 12.45 20.976 10.112 19.257 8.181 17.013 7.84Z" fill="#FFFFFF"/><path d="M6.679 7.098C6.679 7.096 6.676 7.093 6.676 7.09 6.649 6.978 6.578 6.896 6.493 6.896 6.409 6.896 6.338 6.978 6.311 7.09 6.311 7.093 6.308 7.095 6.308 7.098 6.162 7.762 6.065 8.464 5.994 9.373 5.934 10.151 5.905 10.907 5.907 11.621 5.906 12.351 5.935 13.107 5.995 13.873 6.066 14.779 6.162 15.482 6.308 16.146 6.308 16.148 6.311 16.15 6.311 16.154 6.324 16.205 6.345 16.246 6.373 16.279 6.379 16.289 6.385 16.291 6.392 16.299 6.422 16.328 6.456 16.348 6.494 16.348 6.533 16.348 6.567 16.328 6.597 16.299 6.604 16.291 6.609 16.289 6.615 16.279 6.643 16.246 6.664 16.205 6.677 16.154 6.677 16.15 6.68 16.148 6.68 16.146 6.825 15.482 6.921 14.779 6.993 13.873 7.052 13.107 7.081 12.352 7.081 11.625 7.083 10.908 7.054 10.152 6.994 9.374 6.923 8.463 6.826 7.762 6.679 7.098Z" fill="#FFFFFF"/></g></g><g></g><g></g><g></g><g></g><g></g><g></g><g></g><g></g><g></g><g></g><g></g><g></g><g></g><g></g><g></g></svg>