<svg viewBox="0 0 186.845 186.845" xmlns="http://www.w3.org/2000/svg" xmlns:xlink="http://www.w3.org/1999/xlink" id="Capa_1" overflow="hidden"><g><path d="M128.875 120.962C97.781 106.592 54.259 112.948 52.422 113.225 48.326 113.844 45.507 117.665 46.126 121.761 46.745 125.857 50.569 128.673 54.662 128.057 55.068 127.995 95.529 122.075 122.582 134.578 123.6 135.049 124.671 135.272 125.724 135.272 128.558 135.271 131.27 133.658 132.537 130.917 134.274 127.157 132.635 122.7 128.875 120.962Z" fill="#FFFFFF"/><path d="M137.614 93.953C102.301 77.634 52.781 84.866 50.69 85.181 46.596 85.8 43.779 89.619 44.396 93.713 45.012 97.808 48.834 100.629 52.927 100.014 53.395 99.943 100.133 93.157 131.321 107.57 132.341 108.041 133.41 108.264 134.463 108.264 137.297 108.263 140.009 106.65 141.277 103.908 143.014 100.148 141.374 95.691 137.614 93.953Z" fill="#FFFFFF"/><path d="M143.49 65.736C104.484 47.709 49.7 55.708 47.387 56.057 43.293 56.676 40.476 60.495 41.093 64.589 41.71 68.683 45.533 71.508 49.624 70.889 50.147 70.81 102.315 63.232 137.197 79.352 138.215 79.823 139.286 80.046 140.339 80.046 143.173 80.046 145.885 78.432 147.152 75.691 148.89 71.93 147.25 67.474 143.49 65.736Z" fill="#FFFFFF"/><path d="M93.423 0.001C41.909 0.001 0 41.909 0 93.42 0 144.934 41.909 186.844 93.423 186.844 144.936 186.844 186.845 144.934 186.845 93.42 186.845 41.909 144.936 0.001 93.423 0.001ZM93.423 171.844C50.18 171.844 15 136.664 15 93.42 15 50.179 50.18 15 93.423 15 136.665 15 171.845 50.179 171.845 93.42 171.845 136.664 136.665 171.844 93.423 171.844Z" fill="#FFFFFF"/></g><g></g><g></g><g></g><g></g><g></g><g></g><g></g><g></g><g></g><g></g><g></g><g></g><g></g><g></g><g></g></svg>