<?xml version="1.0" standalone="no"?>
<!DOCTYPE svg PUBLIC "-//W3C//DTD SVG 20010904//EN"
 "http://www.w3.org/TR/2001/REC-SVG-20010904/DTD/svg10.dtd">
<svg version="1.0" xmlns="http://www.w3.org/2000/svg"
 width="100.000000pt" height="100.000000pt" viewBox="0 0 100.000000 100.000000"
 preserveAspectRatio="xMidYMid meet">

<g transform="translate(0.000000,100.000000) scale(0.100000,-0.100000)"
fill="#000000" stroke="none">
<path d="M460 753 c12 -19 11 -26 -14 -62 -24 -34 -28 -48 -23 -81 5 -41 34
-96 44 -86 3 3 -4 28 -16 56 l-22 50 26 47 c29 56 30 66 8 84 -15 13 -15 12
-3 -8z"/>
<path d="M521 717 c-7 -28 -12 -59 -11 -67 6 -40 -1 -43 -30 -15 -34 33 -40
26 -10 -12 11 -14 20 -37 20 -50 0 -24 -26 -83 -36 -83 -3 0 -31 21 -62 47
-32 26 -58 48 -60 49 -1 1 9 21 23 45 23 40 34 82 18 66 -4 -4 -20 5 -37 20
l-30 28 27 -34 28 -33 -19 -32 c-11 -17 -25 -30 -31 -28 -17 3 -7 -11 57 -86
29 -35 51 -69 49 -75 -13 -41 -83 13 -93 72 -9 57 -11 59 -51 76 -20 9 -46 23
-58 33 -11 9 -7 2 10 -16 16 -18 40 -35 52 -38 19 -5 23 -13 23 -45 0 -36 -2
-39 -41 -50 -33 -10 -45 -10 -62 1 -19 12 -20 11 -10 -2 7 -8 10 -17 7 -21 -3
-3 20 1 53 8 52 13 59 12 70 -2 7 -9 10 -21 6 -27 -3 -6 -3 -8 2 -4 4 4 20 -1
35 -12 15 -11 50 -29 76 -41 27 -11 59 -30 71 -41 27 -25 38 -19 29 16 -4 16
-20 31 -46 42 -22 10 -40 20 -40 24 0 3 12 23 27 45 15 22 32 62 38 89 9 42
16 51 41 59 40 13 50 22 78 73 31 55 25 57 -10 3 -32 -52 -41 -44 -20 17 9 26
14 49 13 51 -9 8 -39 -78 -34 -96 5 -20 -9 -31 -40 -31 -13 0 -15 10 -9 65 4
36 5 65 3 65 -2 0 -9 -24 -16 -53z"/>
<path d="M723 626 c-25 -12 -43 -53 -43 -96 0 -30 -27 -60 -54 -60 -16 0 -17
6 -11 50 7 52 -1 110 -15 110 -4 0 -6 -17 -3 -37 2 -21 0 -51 -6 -67 -10 -26
-15 -28 -46 -23 -37 6 -58 -8 -26 -18 11 -3 24 -12 31 -20 9 -11 5 -17 -20
-30 -30 -15 -31 -17 -14 -30 16 -11 24 -10 54 6 74 39 98 47 109 36 7 -7 8 -3
4 13 -6 21 -4 22 54 18 46 -2 64 1 78 14 17 16 16 17 -12 6 -16 -6 -45 -8 -66
-4 -34 6 -37 9 -37 42 0 45 13 70 48 88 31 17 8 19 -25 2z"/>
<path d="M449 348 c-4 -73 12 -108 70 -161 41 -37 64 -50 42 -24 -17 21 -43
90 -32 82 6 -3 11 1 11 10 0 31 -30 81 -60 99 -30 17 -30 17 -31 -6z"/>
<path d="M435 241 c-3 -12 -4 -30 0 -41 4 -14 -6 -31 -40 -65 -45 -44 -46 -57
-2 -34 17 10 23 9 31 -4 9 -14 13 -14 38 1 22 13 28 24 28 50 0 29 2 32 14 23
8 -7 22 -27 31 -46 15 -34 35 -47 35 -24 0 6 9 8 23 3 49 -15 50 -14 12 7 -57
31 -124 87 -145 122 -17 28 -18 28 -25 8z"/>
</g>
</svg>
