<svg width="909.333" height="909.333" viewBox="-21 -117 682.667 682" xmlns="http://www.w3.org/2000/svg" xmlns:xlink="http://www.w3.org/1999/xlink" overflow="hidden"><path d="M626.813 64.0352C619.438 36.6172 597.82 15.0039 570.406 7.62109 520.324-6.08203 319.992-6.08203 319.992-6.08203 319.992-6.08203 119.668-6.08203 69.5859 7.10156 42.6992 14.4766 20.5547 36.6211 13.1797 64.0352-1.77636e-15 114.113-1.77636e-15 217.969-1.77636e-15 217.969-1.77636e-15 217.969-1.77636e-15 322.348 13.1797 371.902 20.5625 399.316 42.1719 420.93 69.5898 428.313 120.195 442.02 320 442.02 320 442.02 320 442.02 520.324 442.02 570.406 428.836 597.824 421.457 619.438 399.844 626.82 372.43 639.996 322.348 639.996 218.496 639.996 218.496 639.996 218.496 640.523 114.113 626.813 64.0352ZM256.211 313.914 256.211 122.023 422.797 217.969Z" fill="#FFFFFF"/></svg>