<svg viewBox="0 0 512 512" xmlns="http://www.w3.org/2000/svg" xmlns:xlink="http://www.w3.org/1999/xlink" id="Capa_1" overflow="hidden"><g><g><path d="M352 0 160 0C71.648 0 0 71.648 0 160L0 352C0 440.352 71.648 512 160 512L352 512C440.352 512 512 440.352 512 352L512 160C512 71.648 440.352 0 352 0ZM464 352C464 413.76 413.76 464 352 464L160 464C98.24 464 48 413.76 48 352L48 160C48 98.24 98.24 48 160 48L352 48C413.76 48 464 98.24 464 160L464 352Z" stroke="none" stroke-width="1" stroke-linecap="butt" fill="#FFFFFF" fill-opacity="1"/></g></g><g><g><path d="M256 128C185.312 128 128 185.312 128 256 128 326.688 185.312 384 256 384 326.688 384 384 326.688 384 256 384 185.312 326.688 128 256 128ZM256 336C211.904 336 176 300.096 176 256 176 211.872 211.904 176 256 176 300.096 176 336 211.872 336 256 336 300.096 300.096 336 256 336Z" stroke="none" stroke-width="1" stroke-linecap="butt" fill="#FFFFFF" fill-opacity="1"/></g></g><g><g><circle cx="393.6" cy="118.4" r="17.056" stroke="none" stroke-width="1" stroke-linecap="butt" fill="#FFFFFF" fill-opacity="1"/></g></g><g></g><g></g><g></g><g></g><g></g><g></g><g></g><g></g><g></g><g></g><g></g><g></g><g></g><g></g><g></g></svg>