<?xml version="1.0" standalone="no"?>
<!DOCTYPE svg PUBLIC "-//W3C//DTD SVG 20010904//EN"
 "http://www.w3.org/TR/2001/REC-SVG-20010904/DTD/svg10.dtd">
<svg version="1.0" xmlns="http://www.w3.org/2000/svg"
 width="100.000000pt" height="100.000000pt" viewBox="0 0 100.000000 100.000000"
 preserveAspectRatio="xMidYMid meet">
<metadata>
Created by potrace 1.16, written by Peter Selinger 2001-2019
</metadata>
<g transform="translate(0.000000,100.000000) scale(0.100000,-0.100000)"
fill="#000000" stroke="none">
<path d="M525 748 c-4 -18 -8 -55 -10 -81 -2 -27 -5 -50 -7 -53 -3 -2 -17 9
-32 24 -25 27 -26 30 -11 58 19 37 19 60 0 68 -12 4 -13 2 -3 -14 10 -15 7
-25 -15 -57 -17 -24 -27 -52 -27 -74 0 -40 41 -115 48 -87 2 10 -4 28 -12 40
-9 12 -16 36 -16 53 l1 30 24 -28 c34 -39 30 -104 -8 -129 -14 -9 -125 87
-150 130 -11 18 -22 31 -25 28 -7 -8 39 -75 93 -136 25 -29 44 -57 42 -63 -14
-42 -84 19 -95 83 -7 40 -12 47 -47 64 -22 10 -48 25 -57 34 -10 8 -18 11 -18
6 1 -12 70 -64 87 -64 17 0 18 -64 1 -78 -25 -19 -73 -23 -93 -8 -11 9 -24 16
-30 16 -5 0 1 -7 13 -16 12 -8 20 -19 17 -23 -2 -5 17 -4 43 0 26 5 54 10 62
12 10 1 15 -6 14 -21 0 -12 4 -21 10 -19 6 2 23 -4 38 -15 15 -10 51 -29 80
-42 30 -13 60 -31 67 -40 20 -24 33 -19 29 12 -2 20 -13 32 -43 47 -22 11 -42
21 -44 22 -2 1 11 23 28 49 17 26 33 63 37 83 9 55 12 61 32 61 28 0 70 36 92
81 27 52 17 50 -17 -3 -30 -49 -42 -38 -19 17 9 21 16 45 15 54 -1 22 -31 -47
-38 -89 -5 -27 -12 -36 -30 -38 -24 -4 -24 -3 -17 67 8 75 3 94 -9 39z"/>
<path d="M598 635 c-4 -4 -4 -22 -1 -41 3 -18 0 -48 -7 -65 -12 -28 -17 -31
-46 -26 -41 7 -55 -9 -21 -22 39 -15 40 -29 6 -46 l-31 -17 22 -15 c19 -13 23
-13 38 0 9 8 34 20 54 26 21 7 40 17 44 22 4 6 11 6 19 -1 11 -9 12 -7 8 9 -5
19 -1 21 49 21 30 0 60 -6 67 -12 11 -11 12 -10 6 0 -4 8 0 19 11 28 17 13 16
13 -8 3 -32 -14 -97 -4 -105 17 -12 32 8 85 40 105 30 20 28 20 -23 8 -19 -5
-40 -53 -40 -90 0 -31 -34 -73 -53 -66 -8 3 -11 24 -9 63 3 58 -8 111 -20 99z"/>
<path d="M434 236 c-3 -14 -4 -32 -1 -39 3 -7 -19 -37 -48 -65 -29 -29 -51
-52 -49 -52 3 0 21 7 42 15 33 14 38 14 48 1 9 -14 13 -14 30 -1 25 19 34 19
34 0 0 -20 17 -19 29 2 8 15 11 15 25 3 12 -9 20 -10 27 -3 8 8 21 7 45 -3 54
-23 53 -16 -2 15 -79 43 -113 70 -144 113 l-29 40 -7 -26z"/>
</g>
</svg>
